<svg id="Layer_1" xmlns="http://www.w3.org/2000/svg" viewBox="0 0 480.9 197.586"><style>.st0{fill:#00878f}.st1{fill:#62aeb2}.st2{fill:#e47128}.st3{fill:#e5ad24}.st4{fill:#8c7965}</style><title>Arduino_DAY2018_Logotype</title><g id="LOGO"><path class="st0" d="M318.342 153.071l7.414-23.627h6.579l7.524 23.627h-6.214l-1.31-4.834h-6.8l-1.2 4.834h-5.993zm10.468-18.029l-2.144 8.651h4.47l-2.326-8.651zM343.605 129.444h9.523c6.542 0 9.014 3.345 9.014 7.889 0 3.234-1.308 5.706-3.889 7.087l4.616 8.651h-6.906l-3.562-7.491h-2.944v7.487h-5.852v-23.623zm12.322 7.924c0-2.108-.764-3.161-3.49-3.161h-2.98v6.687h3.09c2.035 0 3.38-.908 3.38-3.526zM366.871 129.444h7.741c8.832 0 11.777 4.181 11.777 11.6 0 5.6-1.708 12.031-11.74 12.031h-7.778v-23.631zm5.85 4.763v14.03h2.216c4.835 0 5.2-2.945 5.2-6.943 0-4.616-.473-7.087-5.706-7.087h-1.71zM403.692 129.444h5.629v15.521c0 6.979-5.342 8.47-9.522 8.47-4.035 0-9.2-1.345-9.2-8.507v-15.484h5.852v14.4c0 3.925 1.381 4.833 3.6 4.833 2.654 0 3.635-1.2 3.635-4.8l.006-14.433zM414.561 148.237h6.107V134.28h-6.107v-4.835h18.1v4.835h-6.14v13.958h6.143v4.834h-18.1l-.003-4.835zM443.021 153.071h-5.525v-23.627h6.362l7.668 14.176v-14.176h5.452v23.627h-5.923l-8.07-15.12.036 15.12zM480.9 141.258c0 6.833-2.508 12.177-10.1 12.177-6.8 0-9.924-4.109-9.924-11.923 0-7.124 2.726-12.4 9.888-12.4 6.719.005 10.136 3.131 10.136 12.146zm-6.215 0c0-5.779-.472-7.378-3.925-7.378-3.126 0-3.672 1.853-3.672 7.632 0 4.761.327 7.16 3.708 7.16 3.417 0 3.889-1.962 3.889-7.414z"/><path class="st1" d="M131.969 47.9l.872-1.613a75.478 75.478 0 0 0-24.769-8.328 74.283 74.283 0 0 0-10.377-.74c-27.6 0-52.288 16.6-61.44 41.308l8.882 3.289c7.782-21.009 28.9-35.124 52.558-35.124a64.52 64.52 0 0 1 9.042.645c16.037 2.291 31.447 11.039 45.8 26l5.229-5.018A103.052 103.052 0 0 0 131.969 47.9z"/><path class="st1" d="M67.21 158.517c-23.789-11.059-39.16-34.447-39.16-59.582a63.903 63.903 0 0 1 10.776-35.588 67.032 67.032 0 0 1 9.416-11.21l4.367 4.562a60.666 60.666 0 0 0-8.53 10.151 57.621 57.621 0 0 0-9.715 32.085c0 23.038 13.605 43.675 35.508 53.855l-2.662 5.727zM183.092 106.691l-2.739-6.389a96.783 96.783 0 0 0-1.012-1.933c-4.8 9.08-30.022 53.416-71.5 59.339-3.387.485-6.88 1.592-10.183 1.592a64.851 64.851 0 0 1-27.538-6.044l-3.162 5.795a72.295 72.295 0 0 0 30.7 6.743 78.858 78.858 0 0 0 11.134-.8c40.019-5.715 65.279-42.317 74.582-58.422l-.282.119z"/><path class="st2" d="M191.866 137.55a153.814 153.814 0 0 1-26.674 28.371l2.318 2.854a156.61 156.61 0 0 0 26.442-27.847c16.509 22.525 43.976 49.245 83.794 54.929l.943-6.6c-40.7-5.81-67.953-34.586-84.16-59.075-.764-1.158-2.663 7.368-2.663 7.368z"/><path class="st3" d="M298.221 165a77.198 77.198 0 0 1-15.97-.622c-12.228-1.748-24.078-6.63-35.223-14.511l-3.465 4.9c11.929 8.435 24.659 13.668 37.838 15.552a84.34 84.34 0 0 0 11.891.854c1.651 0 3.293-.063 4.929-.163V165z"/><path class="st2" d="M186.261 105.332l-3.169 1.359-2.739-6.389a147.183 147.183 0 0 0-22.584-31.983l-5.229 5.018a131.894 131.894 0 0 1 20.425 27.84l9.612 16.774 8.217-4.711-4.533-7.908z"/><path class="st1" d="M293.291 159.662a72.372 72.372 0 0 1-10.263-.738c-42.807-6.113-67.851-49.576-72.436-58.228l6.623-3.509c2.628 4.957 26.83 48.6 66.878 54.318 3.047.439 6.121.661 9.2.663l-.002 7.494z"/><path class="st0" d="M352.937 82.235a58.035 58.035 0 0 0-15.392-24.72 62.71 62.71 0 0 0-34.739-16.726l1.213-8.492a71.213 71.213 0 0 1 39.456 19.02 66.624 66.624 0 0 1 17.661 28.393l-8.199 2.525z"/><path class="st0" d="M238.345 54.946l-4.043-4.6c14.56-12.787 30.4-20.478 47.089-22.858a84.01 84.01 0 0 1 11.868-.849 77.016 77.016 0 0 1 53.6 21.139l-4.236 4.427a70.927 70.927 0 0 0-49.367-19.439 78.001 78.001 0 0 0-11 .788c-15.487 2.206-30.261 9.405-43.911 21.392z"/><path class="st3" d="M207.221 114.623l-21.253-10.11 5.054-10.627c3.283-6.9 15.692-30.9 37.54-50.085l8.844-7.764 15.525 17.688-8.843 7.763c-18.945 16.63-29.826 38.329-31.814 42.509l-5.053 10.626z"/><path class="st0" d="M27.321 127.312c-11.962-27.437-5.43-59.428 16.331-79.979A75.912 75.912 0 0 1 60.465 35.18l3.455 6.49a68.581 68.581 0 0 0-15.186 10.978c-19.527 18.416-25.4 47.104-14.681 71.712l-6.732 2.952z"/><path class="st3" d="M52.645 56.739l-4.439-4.642a71.118 71.118 0 0 1 49.489-19.481 76.926 76.926 0 0 1 37.326 9.633l-3.055 5.651a70.526 70.526 0 0 0-34.274-8.86 64.735 64.735 0 0 0-45.047 17.699zM8.657 98.935H4.735a87.401 87.401 0 0 1 27.4-63.645l2.711 2.834A83.513 83.513 0 0 0 8.657 98.935z"/><path class="st0" d="M163.856 31.893C148.01 19.225 130.639 11.469 112.228 8.84a103.315 103.315 0 0 0-14.533-1.036 96.652 96.652 0 0 0-52.953 15.511l-2.856-4.381A101.862 101.862 0 0 1 97.695 2.573c5.11.003 10.214.367 15.273 1.089 19.353 2.763 37.568 10.887 54.153 24.145l-3.265 4.086zM200.639 65.841l-10.318-7.281C206.827 35.16 235.345 6.014 277.467 0l1.785 12.5c-37.663 5.38-63.538 31.98-78.613 53.341z"/><path class="st1" d="M212.453 67.348l-7.3-5.52c14.446-19.11 39.063-42.947 74.293-47.973a97.938 97.938 0 0 1 13.814-.988 92.604 92.604 0 0 1 34.186 6.438l-3.363 8.512a83.5 83.5 0 0 0-30.823-5.8 88.898 88.898 0 0 0-12.52.895c-32.146 4.59-54.878 26.698-68.287 44.436z"/><path class="st1" d="M197.734 82.25l-10.213-4.158 3.037-7.463.262-.413c13.188-20.874 42.109-56.862 87.627-63.356a105.049 105.049 0 0 1 14.814-1.058v11.029c-4.435.004-8.864.32-13.254.947-38.844 5.542-64.694 34.458-79.6 57.918l-2.673 6.554z"/><path class="st1" d="M197.56 70.946l-5.285-6.484a153.433 153.433 0 0 0-29.235-31.549l4.9-6.128a161.14 161.14 0 0 1 30.667 33.04l5.031 6.159-6.078 4.962z"/><path class="st2" d="M359.884 34.17a95.764 95.764 0 0 0-66.625-26.366c-4.862.003-9.718.349-14.531 1.036l-.738-5.178a108.5 108.5 0 0 1 15.269-1.089 100.968 100.968 0 0 1 70.24 27.818l-3.615 3.779z"/><path class="st0" d="M110.953 180.085l-1.906-13.346c53.362-7.618 79.951-69.773 80.213-70.4 1.181-2.841 29.705-69.851 90.745-78.562l1.9 13.346c-53.525 7.638-79.944 69.773-80.2 70.4-1.184 2.849-29.728 69.849-90.752 78.562z"/><path class="st0" d="M54.884 166.593l5.852-10.072a73.972 73.972 0 0 0 48.135 9.006l1.65 11.526a90.663 90.663 0 0 0 32.4-11.353l-9.766-17a69.767 69.767 0 0 1-35.5 9.671 64.198 64.198 0 0 1-44.7-17.576 58.638 58.638 0 0 1-13.3-18.889l-16.821 7.374a77.157 77.157 0 0 0 17.419 24.8l-.848.886a81.95 81.95 0 0 0 15.479 11.627z"/><path class="st0" d="M97.665 183.104a88.838 88.838 0 0 1-61.8-24.442l3.7-3.868a83.5 83.5 0 0 0 58.1 22.956 90.705 90.705 0 0 0 12.827-.921c44.007-6.285 70.608-43.525 82.582-65.257l3.031-7.192 4.932 2.084-3.211 7.564c-12.424 22.588-40.193 61.472-86.582 68.1a96.106 96.106 0 0 1-13.579.976z"/><path class="st0" d="M97.665 197.586a103.252 103.252 0 0 1-71.816-28.463l6.78-7.084A93.482 93.482 0 0 0 97.66 187.78c4.766-.003 9.526-.344 14.243-1.022 18.344-2.621 35.622-10.432 51.357-23.216l6.182 7.609c-17.134 13.92-36.025 22.437-56.15 25.312a110.426 110.426 0 0 1-15.627 1.123z"/><path class="st3" d="M112.339 189.79l-1.213-8.492c39.533-5.645 65.689-35.059 80.682-58.772.459-.8 4.5-7.8 6.042-10.742l7.594 3.993c-1.712 3.254-6.065 10.793-6.25 11.113l-.087.145c-15.952 25.254-43.954 56.645-86.768 62.755z"/><path class="st1" d="M55.196 166.058c-24.613-14.292-39.307-39.385-39.307-67.123-.001-4.028.315-8.05.945-12.028l6.051.961a70.842 70.842 0 0 0-.869 11.067c0 25.529 13.554 48.641 36.256 61.824l-3.076 5.299z"/><path class="st2" d="M25.671 88.31l-11.623-1.844a80.009 80.009 0 0 1 32.991-52.735c18.191-13.013 40.842-18.38 63.8-15.106a89.988 89.988 0 0 1 15.306 3.584l-3.673 11.18a78.181 78.181 0 0 0-13.3-3.114C68.444 24.48 31.758 49.958 25.671 88.31z"/><path class="st3" d="M24.156 170.894A99.698 99.698 0 0 1 0 135.051l13.691-5.371a85.123 85.123 0 0 0 20.63 30.588l-10.165 10.626z"/><path class="st1" d="M97.665 190.843a96.543 96.543 0 0 1-67.157-26.591 90.284 90.284 0 0 1-27.847-58.507l-.009-.159-.242-6.491 8.572-.32.239 6.41a81.722 81.722 0 0 0 25.218 52.87 88.007 88.007 0 0 0 61.221 24.21 95.385 95.385 0 0 0 13.465-.967l1.215 8.492a103.99 103.99 0 0 1-14.675 1.053z"/><path class="st3" d="M137.051 160.853l-2.666-4.644 2.322-1.332c30.274-17.379 47.185-50.6 50.268-57.085l1.146-2.412 4.834 2.3-1.15 2.417c-3.2 6.735-20.781 41.258-52.436 59.429l-2.318 1.327z"/><path class="st0" d="M203.932 95.419a127.737 127.737 0 0 0-5.807-11.728l1.363-.751c-12.627-22.914-40.847-62.36-87.973-69.085a98.023 98.023 0 0 0-13.82-.988v9.153c4.191.003 8.377.302 12.526.895a86.59 86.59 0 0 1 14.572 3.4l-3.348 10.178c43.5 14.308 65.375 65.454 65.586 65.956 1.206 2.9 30.249 71.12 92.633 80.024l2.586-18.121c-51.979-7.42-78.064-68.328-78.318-68.933z"/><path class="st3" d="M375.655 98.935h-7.353a70.44 70.44 0 0 0-24.514-53.13c-16.736-14.519-39.445-20.973-62.313-17.715l-1.037-7.279c24.973-3.565 49.822 3.523 68.168 19.439a77.79 77.79 0 0 1 27.049 58.685zM88.387 68.092h19.887v61.699H88.387z"/><path class="st0" d="M67.481 88.999h61.695v19.89H67.481z"/><path class="st1" d="M393.894 107.923l-7.859-.729a90.03 90.03 0 0 0 .379-8.259 87.631 87.631 0 0 0-27.451-63.8l5.457-5.7a95.458 95.458 0 0 1 29.886 69.506c0 3.003-.138 6.027-.412 8.982z"/><path class="st0" d="M366.853 112.516l-5.132-1.02a64.78 64.78 0 0 0-19.058-59.725l3.615-3.78a70.023 70.023 0 0 1 20.574 64.525h.001z"/><path class="st2" d="M357.868 113.78l-11.875-3.028a47.879 47.879 0 0 0 1.474-11.814c0-28.039-24.318-50.851-54.208-50.851a63.387 63.387 0 0 0-8.845.632c-.783.112-1.563.24-2.342.384l-2.211-12.059a73.013 73.013 0 0 1 2.827-.462 75.538 75.538 0 0 1 10.571-.755c36.648 0 66.463 28.311 66.463 63.108a60.177 60.177 0 0 1-1.854 14.845z"/><path class="st0" d="M259.678 50.848l-1.413-2.549c-28.135 15.6-44.606 46.13-47.623 52.093l-2.979 6.064-3.152-1.549-1.3 2.885 11.179 5.02 5.012-11.162c2.948-5.463 25.839-45.765 62.673-52.552l-1.106-6.018a70.304 70.304 0 0 0-21.291 7.768z"/><path class="st1" d="M293.291 185.942a99.156 99.156 0 0 1-13.985-1c-20.8-2.971-40.108-12.638-57.375-28.732l7.52-8.068c15.586 14.527 32.885 23.235 51.415 25.882 4.905.693 9.859.981 14.811.861l.258 11.027c-.881.017-1.761.03-2.644.03z"/></g><g id="TITLE"><path class="st4" d="M319.709 163.806h7.881c8.992 0 11.989 4.256 11.989 11.8 0 5.7-1.739 12.249-11.952 12.249h-7.918v-24.049zm5.957 4.847v14.284h2.255c4.921 0 5.292-3 5.292-7.069 0-4.7-.482-7.215-5.81-7.215h-1.737zM341.575 187.858l7.548-24.052h6.7l7.66 24.052h-6.327l-1.333-4.921h-6.922l-1.221 4.921h-6.105zm10.656-18.354l-2.182 8.807h4.55l-2.368-8.807zM375.504 173.649l4.255-9.843h5.962l-7.512 14.542v9.51h-5.957v-9.325l-7.771-14.727h6.44l4.583 9.843z"/><g><path class="st2" d="M408.374 170.757c0-2.738-1.887-4.218-4.292-4.218-1.85 0-3.812 1.109-5.106 2.553l-1.554-1.924c1.184-1.295 3.848-3.146 7.252-3.146 3.737 0 6.735 2.221 6.735 6.401 0 4.922-6.513 11.804-11.36 15.431h12.507v2.553h-16.281v-2.072c4.477-3.219 12.099-10.842 12.099-15.578zM436.161 175.752c0 5.884-1.591 13.025-9.361 13.025-6.105 0-9.029-4.256-9.029-11.915 0-6.846 2.035-12.84 9.288-12.84 6.549 0 9.102 4.552 9.102 11.73zm-13.617 8.585l7.142-17.206c-.776-.37-1.702-.592-2.849-.592-4.922 0-6.068 4.81-6.068 9.51 0 3.181.258 6.327 1.775 8.288zm10.62-8.178c0-2.849-.259-5.883-1.851-7.771l-7.178 17.28c.776.407 1.738.629 2.923.629 5.144.001 6.106-5.327 6.106-10.138zM441.525 185.854h6.771V167.5l-6.143 1.221v-2.405l9.065-2.257v21.795h7.104v2.553h-16.799v-2.553zM471.939 164.022c6.179 0 8.399 4.662 8.399 11.471 0 8.326-4.885 13.247-12.803 13.247-.814 0-1.665-.037-2.554-.148v-2.664c.889.148 1.739.223 2.591.223 5.143 0 9.398-2.85 9.731-9.14-1.739 1.146-3.774 1.924-6.291 1.924-3.959 0-7.141-2.22-7.141-6.734.002-4.886 2.925-8.179 8.068-8.179zm.038 12.433c2.183 0 4.144-.962 5.365-1.961-.074-4.292-1.147-7.992-5.698-7.992-3.404 0-4.736 2.553-4.736 5.217-.001 3.294 1.59 4.736 5.069 4.736z"/></g></g></svg>