<svg id="Layer_1" xmlns="http://www.w3.org/2000/svg" viewBox="0 0 198 42.1"><style>.st0{fill:#73b8c4}.st1{fill:#ec7623}.st2{fill:#efb61d}.st3{fill:#02838d}.st4{fill:#01838c}.st5{enable-background:new}.st6{fill:#9d846e}.st7{fill:#e47128}</style><path class="st0" d="M28.9 10.1l.2-.3c-1.7-.9-3.5-1.5-5.3-1.8-.7-.1-1.5-.1-2.2-.1-5.9 0-11.1 3.5-13.1 8.8l1.9.7c1.7-4.5 6.2-7.5 11.2-7.5.6 0 1.3 0 1.9.1 3.4.5 6.7 2.4 9.7 5.5l1.1-1.1c-1.4-1.5-3.3-3.1-5.4-4.3z"/><path class="st0" d="M15.1 33.8c-5-2.4-8.3-7.3-8.3-12.7 0-2.7.8-5.3 2.3-7.6.6-.9 1.2-1.7 2-2.4l.9 1c-.7.7-1.3 1.4-1.8 2.2-1.4 2-2.1 4.4-2.1 6.8 0 4.9 2.9 9.3 7.6 11.5l-.6 1.2z"/><path class="st0" d="M39.8 22.8l-.6-1.4c-.1-.1-.1-.2-.2-.4-1 1.9-6.4 11.4-15.2 12.6-.7.1-1.5.3-2.2.3-2.1 0-4-.4-5.9-1.3l-.7 1.2c2 1 4.2 1.4 6.5 1.4.8 0 1.6-.1 2.4-.2 8.6-1.1 14-8.8 15.9-12.2z"/><path class="st1" d="M41.6 29.2c-1.7 2.3-3.6 4.4-5.7 6l.5.6c2-1.6 3.9-3.6 5.6-5.9 3.5 4.8 9.4 10.5 17.8 11.7l.2-1.4c-8.7-1.2-14.5-7.4-17.9-12.6-.1-.1-.5 1.6-.5 1.6z"/><path class="st2" d="M64.3 35.2c-1.1.1-2.3 0-3.4-.1-2.6-.4-5.1-1.4-7.5-3.1l-.7 1c2.5 1.8 5.2 2.9 8.1 3.3.8.1 1.7.2 2.5.2h1v-1.3z"/><path class="st1" d="M40.5 22.5l-.7.3-.6-1.4c-.4-.9-2.1-3.9-4.8-6.8l-1.1 1.1c2.4 2.5 3.8 5 4.3 5.9l2 3.6 1.7-1-.8-1.7z"/><path class="st0" d="M63.2 34c-.7 0-1.5-.1-2.2-.2-9.1-1.3-14.4-10.5-15.4-12.4l1.4-.7c.6 1.1 5.7 10.3 14.2 11.6.7.1 1.3.1 2 .1V34z"/><path class="st3" d="M75.9 17.5c-.6-2-1.7-3.8-3.3-5.3-2-1.9-4.6-3.2-7.4-3.6l.3-1.8c3.2.5 6.1 1.9 8.4 4 1.8 1.7 3.1 3.8 3.8 6l-1.8.7z"/><path class="st3" d="M51.5 11.6l-.9-1c3.1-2.7 6.5-4.4 10-4.9.8-.1 1.7-.2 2.5-.2 4.3 0 8.4 1.6 11.4 4.5l-.9.9c-2.7-2.5-6.4-4-10.4-4-.8 0-1.6.1-2.3.2-3.3.5-6.5 2-9.4 4.5z"/><path class="st2" d="M44.9 24.3l-4.5-2.2 1.1-2.3c.7-1.5 3.3-6.6 8-10.7l1.9-1.7 3.3 3.8-1.9 1.8c-4 3.5-6.3 8.2-6.8 9l-1.1 2.3z"/><path class="st3" d="M6.6 27c-.8-1.9-1.3-3.9-1.3-6 0-4.2 1.7-8.1 4.7-11 1.1-1 2.3-1.9 3.6-2.6l.7 1.4c-1.2.6-2.3 1.4-3.2 2.3-2.7 2.6-4.3 6.1-4.3 9.8 0 1.9.4 3.7 1.1 5.4l-1.3.7z"/><path class="st2" d="M12 12.1l-.9-1C13.9 8.5 17.6 7 21.6 7c.8 0 1.6.1 2.3.2 1.9.2 3.8.8 5.6 1.8l-.7 1.2c-1.7-.9-3.4-1.5-5.1-1.7-.7-.1-1.4-.2-2.2-.2-3.5 0-6.9 1.3-9.5 3.8zM2.7 21h-.9c0-5.1 2.1-9.9 5.9-13.5l.6.6C4.6 11.6 2.7 16.2 2.7 21z"/><path class="st3" d="M35.7 6.8c-3.4-2.7-7.1-4.3-11-4.9-1-.1-2.1-.2-3.1-.2-4.1 0-8 1.1-11.3 3.3l-.6-1C13.2 1.7 17.3.5 21.6.5c1.1 0 2.2.1 3.2.2 4.1.6 8 2.3 11.5 5.1l-.6 1zM43.5 14.1l-2.2-1.5c3.5-5 9.6-11.2 18.5-12.5l.4 2.7c-8 1-13.5 6.6-16.7 11.3z"/><path class="st0" d="M46 14.3l-1.6-1.2c3.1-4 8.4-9.1 15.9-10.2 1-.1 2-.2 2.9-.2 2.5 0 5 .5 7.3 1.4l-.7 1.8c-2.1-.8-4.3-1.2-6.6-1.2-.9 0-1.8.1-2.7.2-6.8.9-11.6 5.7-14.5 9.4z"/><path class="st0" d="M42.9 17.5l-2.2-.9.6-1.6.1-.1c2.8-4.4 9-12.1 18.6-13.5 1-.1 2.1-.2 3.2-.2v2.3c-.9 0-1.9.1-2.8.2-8.3 1.2-13.8 7.4-16.9 12.4l-.6 1.4z"/><path class="st0" d="M42.9 15.1l-1.1-1.4c-1.9-2.6-4-4.9-6.2-6.7l1-1.3c2.4 1.9 4.6 4.3 6.5 7l1.1 1.3-1.3 1.1z"/><path class="st1" d="M77.4 7.2c-3.8-3.6-8.8-5.6-14.2-5.6-1 0-2.1.1-3.1.2L59.9.7C61 .5 62.1.5 63.1.5c5.7 0 11 2.1 14.9 5.9l-.6.8z"/><path class="st3" d="M77.4 34.5c-3.8 3.6-8.8 5.6-14.2 5.6-1 0-2.1-.1-3.1-.2l-.2 1.1c1.1.2 2.2.2 3.2.2 5.7 0 11-2.1 14.9-5.9l-.6-.8zM24.4 38.4l-.4-2.8c11.4-1.6 17-14.8 17.1-15 .3-.6 6.3-14.9 19.3-16.7l.4 2.8c-11.4 1.6-17 14.8-17.1 15-.2.5-6.3 14.8-19.3 16.7z"/><path class="st3" d="M12.5 35.5l1.2-2.1c3.1 1.8 6.6 2.4 10.2 1.9l.4 2.5c2.4-.3 4.7-1.2 6.9-2.4l-2.1-3.6c-1.7 1-3.6 1.6-5.4 1.9-.7.1-1.4.2-2.1.2-3.6 0-7-1.3-9.5-3.7-1.2-1.2-2.2-2.5-2.8-4l-3.6 1.6c.9 2 2.1 3.7 3.7 5.3l-.2-.1c1 1 2.1 1.8 3.3 2.5z"/><path class="st3" d="M21.6 39c-5 0-9.6-1.8-13.2-5.2l.8-.8c3.3 3.1 7.7 4.9 12.4 4.9.9 0 1.8-.1 2.7-.2 9.4-1.3 15-9.3 17.6-13.9l.6-1.5 1 .4-.7 1.6c-2.6 4.8-8.6 13.1-18.4 14.5-.9.1-1.8.2-2.8.2z"/><path class="st3" d="M21.6 42c-5.8 0-11.2-2.2-15.3-6.1l1.5-1.5C11.5 38 16.4 40 21.6 40c1 0 2-.1 3-.2 3.9-.6 7.6-2.2 10.9-4.9l1.3 1.6c-3.6 3-7.7 4.8-11.9 5.4-1.1.1-2.2.1-3.3.1z"/><path class="st2" d="M24.7 40.4l-.3-1.8c8.4-1.2 14-7.5 17.2-12.5.1-.2 1-1.7 1.3-2.3l1.6.8c-.4.7-1.3 2.3-1.3 2.4-3.4 5.5-9.4 12-18.5 13.4z"/><path class="st0" d="M12.6 35.4c-5.2-3-8.4-8.4-8.4-14.3 0-.9.1-1.7.2-2.6l1.3.2c-.1.8-.2 1.6-.2 2.4 0 5.4 2.9 10.4 7.7 13.2l-.6 1.1z"/><path class="st1" d="M6.3 18.8l-2.5-.3C4.5 14 7 10 10.8 7.3c3.9-2.8 8.7-3.9 13.6-3.2 1.1.2 2.2.4 3.3.8l-.8 2.4c-.9-.3-1.9-.5-2.8-.7-8.7-1.4-16.5 4-17.8 12.2z"/><path class="st0" d="M55.5 32l-.2.3c1.7.9 3.5 1.5 5.3 1.8.7.1 1.5.2 2.2.2 5.9 0 11.1-3.5 13.1-8.8l-1.9-.7c-1.7 4.5-6.1 7.5-11.2 7.5-.6 0-1.3 0-1.9-.1-3.4-.5-6.7-2.4-9.7-5.5l-1.1 1.1c1.4 1.4 3.3 3 5.4 4.2z"/><path class="st2" d="M72.4 30l.9 1c-2.8 2.7-6.5 4.1-10.5 4.1-.8 0-1.6-.1-2.3-.2-1.9-.3-3.8-.9-5.6-1.9l.7-1.2c1.7.9 3.4 1.5 5.1 1.7.7.1 1.4.2 2.2.2 3.6.2 7-1.2 9.5-3.7zM81.8 21h.8c0 5.1-2.1 9.9-5.8 13.5l-.6-.5c3.6-3.5 5.6-8 5.6-13z"/><path class="st1" d="M78.1 23.3l2.5.4c-.7 4.5-3.2 8.5-7 11.2-3.9 2.8-8.7 3.9-13.6 3.2-1.1-.2-2.2-.4-3.2-.8l.8-2.4c.9.3 1.9.5 2.8.7 8.6 1.3 16.4-4.1 17.7-12.3z"/><path class="st2" d="M6 36.4c-2.3-2.2-4-4.8-5.1-7.6l2.9-1.1c1 2.4 2.4 4.6 4.4 6.5L6 36.4z"/><path class="st0" d="M21.6 40.7c-5.4 0-10.5-2-14.3-5.7-3.5-3.3-5.6-7.7-5.9-12.4v-1.4l1.8-.2v1.4c.3 4.3 2.2 8.2 5.4 11.3 3.5 3.3 8.1 5.2 13 5.2.9 0 1.9-.1 2.9-.2l.3 1.8c-1.1 0-2.2.2-3.2.2z"/><path class="st2" d="M30 34.2l-.6-1 .5-.3c6.4-3.7 10-10.8 10.7-12.1l.2-.5 1 .5-.2.5c-.7 1.4-4.4 8.8-11.2 12.6l-.4.3z"/><path class="st3" d="M44.2 20.3c-.1-.1-.5-1.1-1.2-2.5l.3-.2c-2.7-4.9-8.7-13.3-18.8-14.7-1-.1-2-.2-2.9-.2v1.9c.9 0 1.8.1 2.7.2 1.1.2 2.1.4 3.1.7l-.7 2.2c9.3 3 13.9 13.9 14 14 .3.6 6.4 15.1 19.7 17l.5-3.9c-11.1-1.4-16.6-14.3-16.7-14.5z"/><path class="st2" d="M80.8 21h-1.6c0-4.3-1.9-8.4-5.2-11.3-3.6-3.1-8.4-4.5-13.3-3.8l-.2-1.5c5.3-.8 10.6.7 14.5 4.2 3.7 3.2 5.8 7.6 5.8 12.4zM19.6 14.4h4.2v13.1h-4.2z"/><path class="st3" d="M15.2 19h13.1v4.2H15.2z"/><path class="st1" d="M56.1 19h13.1v4.2H56.1z"/><path class="st0" d="M84.6 23l-1.7-.2c.1-.7.1-1.3.1-1.8 0-5.2-2.1-10-5.8-13.6l1.2-1.2c4.1 3.9 6.4 9.2 6.4 14.8-.1.7-.1 1.3-.2 2z"/><path class="st3" d="M78.9 24l-1.1-.2c.2-.9.3-1.8.3-2.7 0-3.8-1.5-7.3-4.3-10l.8-.8c3 2.9 4.7 6.7 4.7 10.8-.1.9-.2 1.9-.4 2.9z"/><path class="st1" d="M77 24.2l-2.5-.6c.2-.8.3-1.7.3-2.5 0-6-5.2-10.8-11.5-10.8-.6 0-1.3 0-1.9.1-.2 0-.3.1-.5.1l-.5-2.6c.2 0 .4-.1.6-.1.8-.1 1.5-.2 2.2-.2 7.8 0 14.1 6 14.1 13.4.1 1.2-.1 2.2-.3 3.2z"/><path class="st3" d="M56.1 10.8l-.3-.6c-6 3.3-9.5 9.8-10.1 11.1l-.6 1.3-.7-.3-.3.7 2.4 1.1 1.1-2.4c.6-1.2 5.5-9.7 13.3-11.2l-.2-1.3c-1.6.2-3.2.9-4.6 1.6z"/><path class="st0" d="M63.2 39.5c-1 0-2-.1-3-.2-4.4-.6-8.5-2.7-12.2-6.1l1.6-1.7c3.3 3.1 7 4.9 10.9 5.5 1.1.1 2.1.2 3.2.2l.1 2.3h-.6z"/><g><path class="st4" d="M92.4 16.8L97.3 1h4.4l5.1 15.9h-4.2l-.9-3.2h-4.6l-.9 3.2h-3.8zm7-12.1L98 10.5h3l-1.6-5.8zM108.3 1h6.4c4.4 0 6.2 2.1 6.2 5.3 0 2.1-.9 3.7-2.6 4.8l3 5.8h-4.6l-2.3-5.1h-2.1v5.1h-3.9V1h-.1zm8.3 5.3c0-1.4-.5-2.1-2.3-2.1h-2.1v4.6h2.1c1.4-.3 2.3-.8 2.3-2.5zM123.3 1h5.3c6 0 7.9 2.8 7.9 7.8 0 3.7-1.2 8.1-7.8 8.1h-5.3L123.3 1zm3.9 3.1v9.5h1.4c3.2 0 3.5-2.1 3.5-4.6 0-3-.4-4.8-3.7-4.8h-1.2v-.1zM147.5 1h3.7v10.4c0 4.6-3.7 5.7-6.4 5.7-2.8 0-6.2-.9-6.2-5.7V1h3.9v9.7c0 2.6.9 3.2 2.5 3.2 1.8 0 2.5-.9 2.5-3.2V1zM154 13.5h4.1V4H154V.8h12.2V4h-4.1v9.5h4.1v3.2H154v-3.2zM172.4 16.8h-3.7V.8h4.2l5.3 9.5V.8h3.7v15.9h-4.1l-5.3-10.2-.1 10.3zM197.1 8.9c0 4.6-1.8 8.1-6.9 8.1-4.6 0-6.7-2.8-6.7-7.9 0-4.8 1.9-8.3 6.7-8.3s6.9 1.9 6.9 8.1zm-4.1 0c0-3.9-.4-4.9-2.6-4.9-2.1 0-2.5 1.2-2.5 5.1 0 3.2.4 4.8 2.5 4.8 2.3-.1 2.6-1.3 2.6-5z"/><g class="st5"><path class="st6" d="M92.9 25.2h5.3c6 0 7.9 2.8 7.9 7.8 0 3.7-1.2 8.1-7.8 8.1H93l-.1-15.9zm3.9 3.1v9.5h1.4c3.2 0 3.5-2.1 3.5-4.6 0-3-.4-4.8-3.7-4.8h-1.2v-.1zM106.7 41l4.9-15.9h4.4l5.1 15.9h-4.2l-.9-3.2h-4.6l-.9 3.2h-3.8zm7.2-12l-1.4 5.8h3l-1.6-5.8zM128.9 31.7l2.8-6.5h3.9l-4.9 9.5v6.2h-3.9v-6.2l-5.1-9.7h4.2l3 6.7z"/></g><path class="st7" d="M149.4 29.6c0-1.8-1.2-2.8-2.8-2.8-1.2 0-2.5.7-3.4 1.7l-1-1.3c.8-.9 2.5-2.1 4.8-2.1 2.5 0 4.4 1.5 4.4 4.2 0 3.2-4.3 7.8-7.5 10.2h8.2v1.7h-10.7v-1.4c3-2.1 8-7.1 8-10.2zM167.7 32.9c0 3.9-1 8.6-6.2 8.6-4 0-5.9-2.8-5.9-7.8 0-4.5 1.3-8.5 6.1-8.5 4.4 0 6 3 6 7.7zm-8.9 5.6l4.7-11.3c-.5-.2-1.1-.4-1.9-.4-3.2 0-4 3.2-4 6.3 0 2.1.2 4.2 1.2 5.4zm7-5.3c0-1.9-.2-3.9-1.2-5.1l-4.7 11.4c.5.3 1.1.4 1.9.4 3.3-.1 4-3.6 4-6.7zM171.3 39.5h4.5v-12l-4 .8v-1.6l6-1.5v14.4h4.7v1.7h-11.1v-1.8zM191.3 25.2c4.1 0 5.5 3.1 5.5 7.6 0 5.5-3.2 8.7-8.4 8.7-.5 0-1.1 0-1.7-.1v-1.8c.6.1 1.1.1 1.7.1 3.4 0 6.2-1.9 6.4-6-1.1.8-2.5 1.3-4.1 1.3-2.6 0-4.7-1.5-4.7-4.4 0-3.3 1.9-5.4 5.3-5.4zm0 8.2c1.4 0 2.7-.6 3.5-1.3 0-2.8-.8-5.3-3.8-5.3-2.2 0-3.1 1.7-3.1 3.4.1 2.2 1.1 3.2 3.4 3.2z"/></g></svg>